<svg width="235" height="32" viewBox="0 0 235 32" fill="none" xmlns="http://www.w3.org/2000/svg">
<g clip-path="url(#clip0_15381_188)">
<path d="M218.998 0C227.835 0 234.998 7.16344 234.998 16C234.998 24.8366 227.835 32 218.998 32H126.998C118.161 32 110.998 24.8366 110.998 16C110.998 7.16344 118.161 0 126.998 0H218.998ZM137.755 9.76855C137.613 9.76855 137.498 9.88145 137.498 10.0195V17.6475C137.489 19.0103 138.039 20.3178 139.021 21.2754C140.002 22.2329 141.334 22.7627 142.714 22.7412C145.649 22.7412 147.947 20.5043 147.947 17.6494V10.0195C147.945 9.87975 147.831 9.7687 147.691 9.76855H145.254C145.114 9.76878 145 9.88159 145 10.0195V17.5459C145 18.9015 144.038 19.8789 142.714 19.8789C141.39 19.8789 140.446 18.8938 140.446 17.5273V10.0195C140.444 9.87966 140.33 9.76855 140.189 9.76855H137.755ZM173.095 11.5176C171.185 9.63468 168.313 9.07258 165.818 10.0947C163.325 11.1169 161.704 13.5218 161.711 16.1846C161.709 17.9239 162.409 19.5939 163.654 20.8223C164.902 22.0524 166.595 22.743 168.359 22.7412C171.06 22.7483 173.498 21.1505 174.534 18.6924C175.571 16.234 175.004 13.4005 173.095 11.5176ZM215.143 9.60156C211.462 9.61604 208.489 12.5649 208.492 16.1943C208.487 17.9335 209.185 19.6028 210.435 20.8311C211.684 22.0594 213.379 22.7441 215.143 22.7334C216.737 22.737 218.305 22.3303 219.692 21.5557L219.713 21.541C219.876 21.4298 219.973 21.249 219.973 21.0537V16.0898C219.974 15.7456 219.698 15.4673 219.351 15.4619H215.575C215.434 15.4622 215.319 15.5753 215.319 15.7148V17.8291C215.319 17.9688 215.434 18.0818 215.575 18.082H217.178L217.199 19.5361C216.581 19.7549 215.93 19.8699 215.271 19.8789C213.221 19.8572 211.574 18.2023 211.59 16.1797C211.59 14.1085 213.228 12.4248 215.254 12.4248C216.165 12.4231 217.045 12.7546 217.724 13.3535C217.84 13.4699 218 13.5328 218.163 13.5293C218.329 13.5257 218.486 13.4561 218.597 13.3359L219.688 12.208C219.806 12.0861 219.871 11.9243 219.867 11.7559C219.864 11.5873 219.793 11.4271 219.669 11.3105L219.652 11.2969C218.401 10.2209 216.803 9.61949 215.143 9.60156ZM190.38 12.4443C190.238 12.4461 190.123 12.5574 190.123 12.6973V21.6777C190.123 22.2335 190.469 22.5741 191.045 22.5742H191.367C191.891 22.5868 192.38 22.3156 192.642 21.8691C192.909 21.4405 193.038 20.7396 193.038 19.7158V12.6973C193.038 12.6291 193.011 12.5642 192.962 12.5176C192.913 12.4711 192.847 12.4444 192.78 12.4443H190.38ZM125.171 9.76855C125.029 9.76855 124.914 9.88145 124.914 10.0195V12.1963C124.918 12.3344 125.031 12.4443 125.171 12.4443H128.565L128.574 21.6738C128.574 22.2296 128.919 22.5703 129.495 22.5703H129.814C130.338 22.5829 130.828 22.3118 131.09 21.8652C131.355 21.4385 131.484 20.7393 131.484 19.7246V12.4443H134.876C135.018 12.4424 135.13 12.3293 135.13 12.1914V10.0195C135.132 9.88157 135.018 9.76874 134.878 9.76855H125.171ZM150.568 9.76855C150.427 9.7687 150.312 9.88154 150.312 10.0195V12.1963C150.316 12.3343 150.43 12.4443 150.57 12.4443H153.968L153.977 21.6738C153.977 22.2295 154.32 22.5702 154.895 22.5703H155.215C155.739 22.5829 156.227 22.3118 156.489 21.8652C156.755 21.4385 156.885 20.7395 156.885 19.7246V12.4443H160.281C160.423 12.4443 160.538 12.3311 160.538 12.1914V10.0195C160.536 9.87966 160.421 9.76855 160.281 9.76855H150.568ZM201.236 9.76855C198.301 9.76858 196.003 12.0055 196.003 14.8604V21.6689C196.003 22.2301 196.35 22.5653 196.934 22.5654H197.26C197.789 22.576 198.283 22.302 198.547 21.8486C198.818 21.4147 198.949 20.7026 198.949 19.6699V14.957C198.949 13.5996 199.909 12.6241 201.234 12.624C202.56 12.624 203.5 13.6142 203.5 14.9824V21.6689C203.5 22.2302 203.85 22.5654 204.432 22.5654H204.759C205.288 22.5744 205.78 22.3002 206.046 21.8486C206.317 21.4147 206.448 20.7026 206.448 19.6699V14.8604C206.456 13.4993 205.908 12.192 204.928 11.2344C203.948 10.2768 202.617 9.74703 201.236 9.76855ZM177.541 9.76855C177.399 9.76863 177.285 9.88149 177.285 10.0195V21.6182C177.285 22.174 177.629 22.5059 178.203 22.5059H178.525C179.049 22.52 179.538 22.249 179.8 21.8008C180.065 21.374 180.194 20.6748 180.194 19.6602V18.1699H182.158L183.9 21.0977C184.228 21.6463 184.544 22.0127 184.858 22.21C185.084 22.3552 185.348 22.4359 185.617 22.4395H186.783C186.989 22.4465 187.181 22.3439 187.286 22.1719C187.39 21.9908 187.39 21.7701 187.286 21.5908L184.997 17.8936C186.519 17.1744 187.498 15.668 187.521 14.0039C187.521 11.8072 185.684 9.7686 183.428 9.76855H177.541ZM168.359 12.4492C170.438 12.4763 172.113 14.1352 172.133 16.1846C172.116 18.2289 170.427 19.8752 168.354 19.8662C166.281 19.8572 164.604 18.1966 164.605 16.1523C164.607 14.1082 166.286 12.4497 168.359 12.4443V12.4492ZM183.236 12.3271C184.058 12.3271 184.753 13.2492 184.753 14.04C184.753 14.8792 184.06 15.835 183.236 15.835L180.08 15.8389V12.3271H183.236ZM191.577 7.77637C190.706 7.77657 190.001 8.47417 190.003 9.33301C190.003 10.19 190.708 10.8836 191.577 10.8838C192.448 10.8838 193.154 10.1881 193.154 9.3291C193.154 8.47024 192.446 7.77457 191.577 7.77637Z" fill="#121214"/>
<g clip-path="url(#clip1_15381_188)">
<path d="M83.7518 8.139C83.5016 8.1131 83.258 8.11758 83.0136 8.12208C82.9194 8.12382 82.825 8.12556 82.7301 8.12556C82.4359 8.12556 82.1597 8.12973 81.9 8.14164C81.8702 8.143 81.8411 8.14655 81.8129 8.15212C80.3025 8.2525 79.3574 8.67123 78.6983 9.96381H78.5789V9.0478C78.5789 8.69468 78.2936 8.40841 77.9417 8.40841H74.9751C74.6232 8.40841 74.338 8.69468 74.338 9.04781V23.2344C74.338 23.5875 74.6232 23.8738 74.9751 23.8738H76.4584C77.6295 23.8738 78.5789 22.921 78.5789 21.7458V16.7705C78.5938 13.6984 79.9378 12.02 82.4017 12.005C82.5074 12.008 82.6172 12.0138 82.7302 12.0225C82.9499 12.0395 83.1819 12.0675 83.4203 12.1064C83.8308 12.1734 84.2234 11.8686 84.2234 11.4512V8.71086C84.2234 8.42539 84.0347 8.16829 83.7518 8.139Z" fill="#121214"/>
<path d="M26.8815 9.64412H27.001C28.4322 8.41922 29.5396 7.98881 31.7496 7.98881C35.1145 7.98881 37.2598 10.5514 37.2747 14.7025V21.7458C37.2747 22.921 36.3254 23.8738 35.1543 23.8738H33.671C33.3191 23.8738 33.0338 23.5875 33.0338 23.2344V15.4218C33.0189 13.1739 31.9587 11.8851 30.1667 11.8851C28.3599 11.8851 26.8964 13.1439 26.8815 16.0512V21.7458C26.8815 22.921 25.9322 23.8738 24.7611 23.8738H23.2777C22.9259 23.8738 22.6406 23.5875 22.6406 23.2344V9.0478C22.6406 8.69468 22.9259 8.40841 23.2777 8.40841H26.2444C26.5963 8.40841 26.8815 8.69468 26.8815 9.0478V9.64412Z" fill="#121214"/>
<path d="M1.53557 2.17431C1.18369 2.17431 0.898438 2.46058 0.898438 2.8137V23.2344C0.898438 23.4992 1.05889 23.7265 1.28757 23.8235C1.36379 23.8559 1.4476 23.8738 1.53557 23.8738H4.68301C4.68433 23.8738 4.68566 23.8738 4.68698 23.8738H12.4114C13.5586 23.8738 14.4885 22.9405 14.4885 21.7893V20.3443C14.4885 19.9912 14.2032 19.7049 13.8514 19.7049H5.32014V2.8137C5.32014 2.46058 5.03489 2.17431 4.68301 2.17431H1.53557Z" fill="#121214"/>
<path d="M18.5142 6.21928C19.9081 6.21928 21.038 5.08566 21.038 3.68728C21.038 2.28889 19.9081 1.15527 18.5142 1.15527C17.1204 1.15527 15.9905 2.28889 15.9905 3.68728C15.9905 5.08566 17.1204 6.21928 18.5142 6.21928Z" fill="#121214"/>
<path d="M17.0159 8.40841C16.664 8.40841 16.3788 8.69468 16.3788 9.0478V23.2344C16.3788 23.5875 16.664 23.8738 17.0159 23.8738H18.4992C19.6703 23.8738 20.6197 22.921 20.6197 21.7458V9.0478C20.6197 8.69468 20.3344 8.40841 19.9826 8.40841H17.0159Z" fill="#121214"/>
<path d="M72.775 16.1411C72.775 20.6435 69.138 24.2934 64.6516 24.2934C60.1651 24.2934 56.5281 20.6435 56.5281 16.1411C56.5281 11.6387 60.1651 7.98881 64.6516 7.98881C69.138 7.98881 72.775 11.6387 72.775 16.1411ZM60.5898 16.1411C60.5898 18.3923 62.4083 20.2172 64.6516 20.2172C66.8948 20.2172 68.7133 18.3923 68.7133 16.1411C68.7133 13.8899 66.8948 12.0649 64.6516 12.0649C62.4083 12.0649 60.5898 13.8899 60.5898 16.1411Z" fill="#121214"/>
<path fill-rule="evenodd" clip-rule="evenodd" d="M54.9353 21.4768V9.0478C54.9353 8.69468 54.65 8.40841 54.2981 8.40841H51.3315C50.9796 8.40841 50.6944 8.69468 50.6944 9.0478V9.09801C49.5607 8.48594 48.264 8.13867 46.8865 8.13867C42.4413 8.13867 38.8377 11.755 38.8377 16.216C38.8377 20.677 42.4413 24.2934 46.8865 24.2934C48.1415 24.2934 49.3294 24.0051 50.3881 23.491C50.2821 23.8413 50.1313 24.1789 49.9375 24.495C49.415 25.3474 48.6126 25.9902 47.6685 26.3127C46.7245 26.6353 45.698 26.6173 44.7657 26.2619C44.0331 25.9826 43.3949 25.5088 42.916 24.8963C42.6988 24.6185 42.3133 24.5072 42.0074 24.6817L39.3892 26.1743C39.0833 26.3487 38.9742 26.7406 39.1702 27.0338C40.1569 28.5097 41.5786 29.6474 43.2439 30.2822C45.1084 30.993 47.1615 31.029 49.0496 30.3839C50.9376 29.7389 52.5424 28.7724 53.5875 27.0676C53.6214 27.0123 53.6546 26.9583 53.687 26.9056C54.5062 25.573 54.843 25.0251 54.9263 22.427C54.9322 22.3921 54.9353 22.3562 54.9353 22.3196V22.0985C54.939 21.9365 54.9418 21.767 54.9439 21.5896C54.9443 21.5511 54.9414 21.5134 54.9353 21.4768ZM46.8865 12.3389C48.7964 12.3389 50.3826 13.7297 50.6944 15.5572V16.8748C50.3826 18.7023 48.7964 20.0932 46.8865 20.0932C44.7528 20.0932 43.0231 18.3573 43.0231 16.216C43.0231 14.0747 44.7528 12.3389 46.8865 12.3389Z" fill="#121214"/>
<path fill-rule="evenodd" clip-rule="evenodd" d="M96.3141 8.9671C95.1722 8.34325 93.863 7.98881 92.4714 7.98881C88.0261 7.98881 84.4226 11.6052 84.4226 16.0662C84.4226 20.5272 88.0261 24.1435 92.4714 24.1435C93.861 24.1435 95.1684 23.7901 96.3091 23.168V23.2344C96.3091 23.5875 96.5944 23.8738 96.9462 23.8738H98.4296C99.6006 23.8738 100.55 22.921 100.55 21.7458V9.0478C100.55 8.69468 100.265 8.40841 99.9129 8.40841H96.9462C96.6216 8.40841 96.3537 8.65207 96.3141 8.9671ZM96.3091 15.6167C96.0871 13.6871 94.4536 12.189 92.4714 12.189C90.3377 12.189 88.6079 13.9249 88.6079 16.0662C88.6079 18.2074 90.3377 19.9433 92.4714 19.9433C94.4536 19.9433 96.0871 18.4452 96.3091 16.5156V15.6167Z" fill="#121214"/>
</g>
</g>
<defs>
<clipPath id="clip0_15381_188">
<rect width="235" height="32" fill="white"/>
</clipPath>
<clipPath id="clip1_15381_188">
<rect width="103.796" height="30.6939" fill="white" transform="translate(0.333984 0.65332)"/>
</clipPath>
</defs>
</svg>
